<svg width="147" height="57" viewBox="0 0 147 57" fill="none" xmlns="http://www.w3.org/2000/svg">
<path d="M8.71617 6.80564C9.23033 6.82985 9.7444 6.75593 10.2281 6.58823C10.7118 6.42053 11.1555 6.16244 11.5328 5.82915C11.8728 5.5189 12.1404 5.14404 12.3181 4.72892C12.4959 4.31382 12.58 3.86773 12.5647 3.41968C12.5766 2.96946 12.491 2.52175 12.3135 2.10429C12.136 1.68684 11.8702 1.30854 11.5328 0.99288C11.158 0.655318 10.7151 0.393694 10.2309 0.223857C9.74679 0.054019 9.23146 -0.0204959 8.71617 0.00482613C8.20291 -0.0185805 7.68996 0.0568647 7.20807 0.226642C6.72617 0.39642 6.28524 0.657036 5.91168 0.99288C5.56866 1.30571 5.29764 1.68295 5.11582 2.1007C4.934 2.51846 4.84533 2.9676 4.85545 3.41968C4.84413 3.87041 4.93353 4.31828 5.11772 4.73365C5.30189 5.14903 5.57666 5.52243 5.92381 5.82915C6.29771 6.1604 6.73723 6.41738 7.21669 6.58504C7.69614 6.75271 8.20591 6.82771 8.71617 6.80564Z" fill="#264EAB"/>
<path d="M22.6156 6.86357C23.1295 6.88578 23.6431 6.80979 24.1258 6.6401C24.6085 6.4704 25.0507 6.21044 25.4261 5.87551C25.7746 5.55996 26.0496 5.17839 26.2337 4.75542C26.4177 4.33246 26.5065 3.87748 26.4945 3.41983C26.5019 2.9729 26.4125 2.52932 26.2318 2.11675C26.0511 1.70419 25.783 1.33149 25.4443 1.02191C25.0666 0.684846 24.6216 0.423641 24.1355 0.253884C23.6496 0.0841273 23.1326 0.00929675 22.6156 0.0338572C22.1022 0.0104506 21.5893 0.0858958 21.1074 0.255673C20.6255 0.425451 20.1846 0.686067 19.811 1.02191C19.4723 1.33149 19.2043 1.70419 19.0235 2.11675C18.8429 2.52932 18.7535 2.9729 18.7608 3.41983C18.7488 3.87748 18.8376 4.33246 19.0217 4.75542C19.2057 5.17839 19.4808 5.55996 19.8293 5.87551C20.2008 6.20893 20.6388 6.46815 21.1174 6.63785C21.5959 6.80754 22.1053 6.8843 22.6156 6.86357Z" fill="#264EAB"/>
<path d="M29.3136 19.4136C28.7131 18.1818 27.9678 17.0187 27.0918 15.9468C26.2343 14.8955 25.2103 13.9774 24.0567 13.2253C22.8638 12.4356 21.5489 11.8274 20.1596 11.4225C18.6373 10.9791 17.053 10.7589 15.4611 10.7697C13.8941 10.7546 12.334 10.969 10.8356 11.4052C9.47933 11.8076 8.19877 12.4121 7.04157 13.1965C5.89819 13.9843 4.88534 14.9309 4.03676 16.0046C3.15675 17.1141 2.42475 18.3233 1.85752 19.6043C1.22967 21.0303 0.771549 22.5189 0.491696 24.0419C0.177434 25.6895 0.0129271 27.3598 0 29.0342L0 34.7372C0.0145436 36.3291 0.162727 37.9173 0.443133 39.4867C0.701739 40.9397 1.11879 42.363 1.68755 43.7337C2.25271 45.0952 3.00161 46.3811 3.91536 47.5588C4.77563 48.6558 5.79791 49.6289 6.95051 50.4479C8.13517 51.2487 9.4439 51.8687 10.8295 52.2853C12.3469 52.7305 13.9279 52.9489 15.5157 52.9324C17.0388 52.9518 18.5565 52.7571 20.0199 52.3546C21.3632 51.9791 22.6413 51.4185 23.8138 50.6905C25.0511 49.894 26.1507 48.9193 27.0736 47.8014C28.0303 46.6471 28.8279 45.3811 29.4472 44.0341C30.0774 42.625 30.5436 41.1543 30.8373 39.6485C31.1592 38.0252 31.3278 36.3776 31.341 34.7256V29.0342C31.3314 27.3213 31.1526 25.6131 30.8069 23.9321C30.4912 22.3769 29.9902 20.8608 29.3136 19.4136ZM23.5043 34.7372C23.5054 35.7312 23.4507 36.7245 23.3403 37.7129C23.2438 38.6221 23.0713 39.5224 22.8244 40.4055C22.5703 41.3759 22.1975 42.3145 21.7135 43.2021C21.2873 43.9868 20.718 44.693 20.0321 45.2879C19.4583 45.7958 18.7833 46.1888 18.047 46.4436C17.2386 46.7165 16.3855 46.8495 15.5279 46.8365C14.6515 46.8535 13.7798 46.7103 12.9602 46.4147C12.242 46.1528 11.5843 45.7602 11.0237 45.2591C10.3647 44.6589 9.83124 43.9452 9.45149 43.1559C9.00379 42.2696 8.66564 41.337 8.44382 40.3766C8.21896 39.4914 8.06475 38.5913 7.98247 37.684C7.89141 36.7364 7.84892 35.7599 7.84892 34.7949V29.0168C7.84892 27.9826 7.89748 26.9771 7.99461 25.9949C8.08833 25.065 8.24855 24.1422 8.47416 23.233C8.70073 22.2496 9.06411 21.2994 9.55469 20.4075C9.99074 19.6162 10.5774 18.9089 11.2848 18.3216C11.8219 17.8845 12.4393 17.5455 13.1058 17.322C13.8696 17.0749 14.6727 16.9557 15.4793 16.9695C17.0683 16.9384 18.6187 17.4371 19.8621 18.3794C20.5775 18.9683 21.1758 19.6748 21.6285 20.4652C22.1334 21.3402 22.5267 22.2693 22.8002 23.233C23.0634 24.1374 23.2461 25.0613 23.3464 25.9949C23.457 26.9988 23.5116 28.0075 23.5103 29.0168L23.5043 34.7372Z" fill="#264EAB"/>
<path d="M66.8819 34.1993H84.6679V28.3056H66.8819V17.3561H87.5453V11.318H61.795H59.118H53.2541L44.4825 30.6168L35.7108 11.318H27.1699L40.5367 37.6719L40.5974 52.3945H48.2157L48.246 37.9493L59.118 16.5761V52.3945H87.6606V46.4142H66.8819V34.1993Z" fill="#264EAB"/>
<path d="M104.725 38.2613L105.114 11.318H97.2891L97.6412 38.2613H104.725Z" fill="#264EAB"/>
<path d="M104.49 45.8649C103.572 45.1087 102.399 44.6924 101.185 44.6924C99.971 44.6924 98.7976 45.1087 97.8797 45.8649C97.487 46.2463 97.1775 46.698 96.9692 47.1938C96.7608 47.6897 96.6576 48.22 96.6657 48.754C96.656 49.283 96.7586 49.8084 96.9671 50.2989C97.1757 50.7893 97.4861 51.2347 97.8797 51.6083C98.8026 52.3546 99.974 52.7643 101.185 52.7643C102.396 52.7643 103.567 52.3546 104.49 51.6083C104.887 51.2369 105.2 50.792 105.408 50.301C105.617 49.81 105.718 49.2835 105.704 48.754C105.716 48.2194 105.615 47.6881 105.407 47.1917C105.198 46.6952 104.886 46.244 104.49 45.8649Z" fill="#264EAB"/>
<path d="M143.662 35.0657H119.798C118.913 35.0657 118.064 34.7309 117.438 34.1349C116.811 33.5389 116.46 32.7306 116.46 31.8878C116.46 31.0449 116.811 30.2366 117.438 29.6406C118.064 29.0446 118.913 28.7098 119.798 28.7098H143.662C144.547 28.7098 145.396 29.0446 146.022 29.6406C146.648 30.2366 147 31.0449 147 31.8878C147 32.7306 146.648 33.5389 146.022 34.1349C145.396 34.7309 144.547 35.0657 143.662 35.0657Z" fill="#264EAB"/>
<path d="M119.585 23.1811C118.835 23.1813 118.107 22.9412 117.518 22.4995C116.929 22.0577 116.513 21.44 116.338 20.7459C116.162 20.0518 116.238 19.3217 116.552 18.6734C116.865 18.025 117.399 17.496 118.068 17.1719L137.723 7.66108C138.114 7.47139 138.54 7.35678 138.977 7.32381C139.414 7.29083 139.854 7.34014 140.271 7.46891C140.688 7.59768 141.074 7.80339 141.408 8.0743C141.741 8.34522 142.016 8.67602 142.215 9.04783C142.415 9.41964 142.535 9.82517 142.569 10.2413C142.604 10.6574 142.552 11.0759 142.417 11.4729C142.281 11.8699 142.065 12.2377 141.781 12.5553C141.496 12.8728 141.149 13.1339 140.758 13.3236L121.121 22.8344C120.646 23.0664 120.119 23.1854 119.585 23.1811Z" fill="#264EAB"/>
<path d="M139.353 56.4573C138.828 56.4579 138.311 56.339 137.843 56.1106L128.015 51.3553L118.186 46.5999C117.398 46.2167 116.802 45.5511 116.528 44.7492C116.255 43.9473 116.328 43.075 116.73 42.3241C117.133 41.5732 117.832 41.0052 118.674 40.7451C119.517 40.4851 120.433 40.5542 121.222 40.9373L140.865 50.4481C141.533 50.772 142.066 51.3005 142.381 51.9483C142.695 52.596 142.771 53.3255 142.596 54.0193C142.421 54.7131 142.007 55.3308 141.419 55.773C140.831 56.2152 140.103 56.4562 139.353 56.4573Z" fill="#264EAB"/>
</svg>
