<svg width="58" height="58" viewBox="0 0 58 58" fill="none" xmlns="http://www.w3.org/2000/svg">
<path d="M57.6144 1.37366C57.0976 0.870735 56.2591 0.875919 55.7503 1.38662L44.1305 12.9669C39.5902 8.78014 32.8325 4.84747 24.1342 11.9792C23.127 12.5417 14.7451 17.2158 10.0545 19.593C6.99594 21.1459 2.3027 22.9917 2.11813 23.072C0.981734 23.6735 0.272475 24.7182 0.0641797 26.0896C-0.623986 30.5926 4.24064 38.2972 13.7589 47.7854C18.5629 52.5735 23.4829 55 28.3871 55C32.5451 55 36.6688 53.1698 39.9989 49.8489C45.4278 44.436 46.8384 36.1636 47.0994 34.2375C54.0707 25.8096 50.1764 19.2405 45.9841 14.8023L57.6196 3.20649C58.1312 2.69838 58.1259 1.87658 57.6091 1.37366H57.6144ZM38.1216 48.029C35.2503 50.8936 31.8859 52.4076 28.3897 52.4076C25.6951 52.4076 22.9503 51.5003 20.1871 49.7063C20.8067 49.3071 21.8957 48.5864 22.6919 47.9772C24.5429 46.5566 27.546 43.679 27.6726 43.5572C28.192 43.0568 28.2025 42.235 27.6936 41.7217C27.19 41.2136 26.3516 41.2033 25.8295 41.701C25.8005 41.7295 22.8079 44.5993 21.0704 45.9292C20.253 46.5566 19.1008 47.3058 18.5787 47.6428L17.9328 48.0446C17.1681 47.4172 16.4035 46.7225 15.6389 45.9603C12.3721 42.7068 9.91735 39.933 8.07433 37.5843C8.11388 37.5687 8.14815 37.5558 8.17188 37.548C8.93651 37.2524 10.6372 36.5732 11.8685 35.9692C14.4445 34.7041 18.7765 31.9406 18.9584 31.824C19.5675 31.4325 19.7415 30.6315 19.3434 30.03C18.9479 29.4286 18.1252 29.2601 17.5214 29.6489C17.4766 29.6775 13.1314 32.4513 10.6872 33.649C9.52712 34.2193 7.91876 34.8571 7.2016 35.137C7.08558 35.1811 6.756 35.303 6.45015 35.4118C2.63755 30.0067 2.53736 27.3573 2.67446 26.4707C2.7852 25.7396 3.12533 25.483 3.23607 25.413C3.43118 25.3352 8.09278 23.5024 11.2673 21.8925C15.3673 19.8134 22.2411 16.0077 24.6641 14.6597L44.4522 34.1623C44.1279 36.2621 42.7226 43.4431 38.1269 48.0213L38.1216 48.029ZM45.7257 31.7617L26.8578 13.1639C32.4607 9.07308 37.27 9.8508 43.1734 15.6733C49.0822 21.4984 49.8732 26.2425 45.7231 31.7617H45.7257Z" fill="#101014"/>
</svg>
