<svg width="72" height="50" viewBox="0 0 72 50" fill="none" xmlns="http://www.w3.org/2000/svg">
<path d="M67.8244 25.1077C65.3972 22.6255 62.2352 21.1183 58.8244 20.7962C58.6144 18.0781 57.6462 15.4745 56.0308 13.2843C54.4821 11.1743 52.3989 9.51997 49.9982 8.49361C50.2034 7.87813 50.3886 7.24594 50.5538 6.59704C51.317 3.59316 51.3729 1.30785 51.3749 1.21193C51.3784 1.05186 51.3496 0.892739 51.2902 0.744157C51.2309 0.595575 51.1422 0.460609 51.0295 0.347394C50.9169 0.234178 50.7826 0.145057 50.6348 0.0854021C50.4869 0.0257469 50.3286 -0.00320909 50.1693 0.000281983C50.0739 0.0023014 47.7997 0.0581726 44.8112 0.82555C43.052 1.27723 41.4031 1.88372 39.9098 2.62889C38.0214 3.57128 36.3775 4.73918 35.0232 6.10026C34.049 7.08708 33.1931 8.18516 32.473 9.37206C30.3277 8.17307 27.9155 7.53883 25.4607 7.52831C23.006 7.5178 20.5885 8.13135 18.433 9.31191C16.2775 10.4925 14.4541 12.2017 13.1324 14.2806C11.8106 16.3595 11.0334 18.7406 10.873 21.2025C4.52094 22.8671 3.70653e-06 28.677 3.70653e-06 35.3663C-0.00136133 37.2884 0.374325 39.1919 1.10557 40.968C1.83682 42.7441 2.90928 44.3578 4.26161 45.7169C5.61394 47.0761 7.21961 48.1539 8.98678 48.8889C10.754 49.6238 12.6479 50.0014 14.5604 50H57.4397C60.3087 50 63.1137 49.1481 65.5026 47.5514C67.8916 45.9546 69.7579 43.6842 70.8673 41.025C71.9767 38.3659 72.2798 35.4366 71.7384 32.605C71.1971 29.7733 69.8354 27.1656 67.8244 25.109V25.1077ZM36.6936 7.7784C39.3509 5.10772 42.8618 3.78164 45.339 3.13946C46.5136 2.83585 47.7077 2.61454 48.9128 2.4771C48.7761 3.68819 48.5558 4.88826 48.2535 6.06863C47.6148 8.55924 46.2954 12.0868 43.6378 14.7575C40.9801 17.4282 37.4699 18.7546 34.9924 19.3964C33.818 19.7003 32.6241 19.9217 31.4192 20.0591C31.7072 17.4904 32.7765 11.7156 36.6936 7.7784ZM57.4397 47.6282H14.5604C7.83294 47.6282 2.3596 42.1273 2.3596 35.366C2.3596 29.4925 6.51785 24.4275 12.2474 23.3235C12.5166 23.2716 12.7595 23.127 12.9342 22.9147C13.1089 22.7024 13.2046 22.4355 13.2048 22.16C13.2102 15.404 18.6835 9.90888 25.4057 9.90888C27.4891 9.90553 29.5383 10.4411 31.3562 11.4642C30.6914 12.9033 30.1626 14.402 29.7769 15.9405C29.0134 18.9444 28.9578 21.2301 28.9558 21.3256C28.9523 21.4835 28.9803 21.6404 29.038 21.7873C29.0958 21.9341 29.1821 22.0679 29.2919 22.1808C29.4018 22.2936 29.533 22.3833 29.6778 22.4445C29.8226 22.5057 29.9781 22.5373 30.1352 22.5373H30.16C30.2554 22.5353 32.5293 22.4791 35.5181 21.712C37.2776 21.2604 38.9266 20.6535 40.4195 19.9083C42.3079 18.966 43.9522 17.7984 45.3065 16.4373C46.6607 15.0762 47.8215 13.422 48.7591 11.5231C48.8917 11.2552 49.0197 10.9823 49.1429 10.7045C51.3258 11.6486 53.1863 13.2137 54.4953 15.2071C55.8044 17.2004 56.5048 19.535 56.5104 21.9234C56.5114 22.2334 56.6333 22.5306 56.8497 22.7514C57.0662 22.9722 57.36 23.099 57.6684 23.1047C64.27 23.2266 69.6405 28.7255 69.6405 35.365C69.6405 42.1263 64.1671 47.6272 57.4397 47.6272V47.6282Z" fill="#141414"/>
<path d="M25.5229 37.2701C25.1774 37.2726 24.8437 37.4055 24.5797 37.6456C23.6775 38.4192 22.7956 38.8612 21.463 38.8612C19.0022 38.8612 17.3002 36.6512 17.3002 33.999V33.9547C17.3002 31.3024 19.0433 29.1368 21.463 29.1368C22.5907 29.1368 23.5133 29.5345 24.3952 30.2419C24.6214 30.3965 24.9077 30.5731 25.3384 30.5731C26.1996 30.5731 26.8966 29.8438 26.8966 28.9156C26.8967 28.6552 26.8414 28.3983 26.7349 28.1646C26.6285 27.9308 26.4738 27.7265 26.2826 27.5673C25.0931 26.6172 23.6374 26 21.4843 26C17.0757 26 14 29.6024 14 34.0007V34.0435C14 38.486 17.1371 42 21.3612 42C23.6577 42 25.1742 41.2707 26.4668 40.0551C26.7538 39.7901 27 39.37 27 38.8396C26.9994 37.9772 26.3227 37.2701 25.5229 37.2701Z" fill="#141414" stroke="white" stroke-width="0.6"/>
<path d="M37.0215 26C32.3762 26 29 29.6019 29 33.9997V34.0446C29 38.4423 32.3331 42 36.9785 42C41.6238 42 45 38.3981 45 34.0003V33.9561C45 29.5581 41.6665 26 37.0215 26ZM41.5361 34.0446C41.5361 36.6965 39.6867 38.8619 37.0202 38.8619C34.3537 38.8619 32.4609 36.6523 32.4609 34.0003V33.9561C32.4609 31.3042 34.3103 29.1388 36.9771 29.1388C39.644 29.1388 41.5361 31.3481 41.5361 34V34.0446Z" fill="#141414" stroke="white" stroke-width="0.6"/>
<path d="M56.6093 39.0029H51.5453L53.9113 37.02C56.485 34.8567 57.7302 33.5499 57.7302 30.9122V30.8671C57.7302 27.9154 55.7377 26 52.7283 26C50.5284 26 49.1587 26.8562 47.9963 28.321C47.7617 28.6247 47.6298 29.0063 47.6227 29.4026C47.6215 29.6101 47.6583 29.8158 47.7309 30.0078C47.8034 30.1998 47.9104 30.3742 48.0456 30.5209C48.1807 30.6677 48.3414 30.7838 48.5182 30.8626C48.695 30.9414 48.8845 30.9813 49.0756 30.98C49.2774 30.9827 49.4775 30.9399 49.6633 30.8543C49.849 30.7687 50.0164 30.6422 50.1549 30.4829C50.9641 29.5365 51.6078 29.1082 52.5209 29.1082C53.6624 29.1082 54.4716 29.8291 54.4716 31.1586C54.4716 32.4658 53.7661 33.3446 51.9603 34.9444L47.8304 38.6197C47.2908 39.0931 47 39.679 47 40.3548C47 41.3913 47.7264 42 48.7227 42H56.6093C57.3773 42 58 41.3462 58 40.5128C58 40.3145 57.964 40.1182 57.8941 39.935C57.8243 39.7518 57.7218 39.5854 57.5927 39.4451C57.4635 39.3049 57.3102 39.1937 57.1415 39.1178C56.9728 39.042 56.7919 39.0029 56.6093 39.0029Z" fill="#141414" stroke="white" stroke-width="0.6"/>
</svg>
