<svg width="58" height="58" viewBox="0 0 58 58" fill="none" xmlns="http://www.w3.org/2000/svg">
<path d="M29.0007 45.6444C28.8774 45.6444 28.7518 45.6251 28.6333 45.5888L26.9852 45.0644C26.6758 44.9653 19.3002 42.5873 10.8128 36.7946C7.94909 34.8395 5.27867 32.8772 2.87409 30.9656C2.35209 30.5499 2.26509 29.7887 2.68076 29.2667C3.09401 28.7447 3.85526 28.6577 4.37726 29.0733C6.73834 30.9487 9.36042 32.8772 12.1758 34.7984C20.3732 40.393 27.4226 42.6671 27.7174 42.7613L29.0007 43.1698L30.2815 42.7613C30.5788 42.6671 37.6282 40.393 45.8255 34.7984C48.6458 32.8723 51.2703 30.9463 53.6241 29.0733C54.1485 28.6601 54.9073 28.7423 55.323 29.2667C55.7387 29.7887 55.6517 30.5499 55.1297 30.9656C52.7299 32.8748 50.0571 34.8347 47.1909 36.7946C38.7012 42.5873 31.3279 44.9653 31.0162 45.0644L29.368 45.5888C29.2496 45.6275 29.1239 45.6444 29.0007 45.6444Z" fill="#101014"/>
<path d="M28.9992 55.0347C28.8759 55.0347 28.7503 55.0154 28.6318 54.9791L26.9837 54.4547C26.1958 54.2009 19.0763 51.8253 10.8113 46.1849C7.9621 44.2394 5.29168 42.2771 2.8726 40.3558C2.3506 39.9402 2.2636 39.1814 2.67685 38.6569C3.0901 38.1349 3.85376 38.0504 4.37576 38.4612C6.74893 40.3486 9.37343 42.2747 12.1743 44.1863C20.2943 49.7277 27.4211 52.0549 27.7208 52.1492L28.9992 52.5552L30.28 52.1468C30.5773 52.0525 37.7016 49.7253 45.824 44.1839C48.6298 42.2674 51.2543 40.3413 53.6226 38.4588C54.147 38.0503 54.9058 38.1301 55.3215 38.6545C55.7372 39.1789 55.6502 39.9378 55.1282 40.3534C52.7139 42.2699 50.0435 44.2298 47.1894 46.1824C38.9244 51.8229 31.8049 54.1985 31.0195 54.4523L29.3665 54.9791C29.2481 55.0178 29.1224 55.0347 28.9992 55.0347Z" fill="#101014"/>
<path d="M28.9993 36.9994C28.8761 36.9994 28.7504 36.98 28.632 36.9438C28.3517 36.8544 21.6938 34.7011 13.871 29.3603C6.69352 24.4617 2.95735 21.0131 2.80268 20.8705C2.55618 20.6409 2.41602 20.3195 2.41602 19.9836C2.41602 19.6477 2.55618 19.3263 2.80268 19.0967C2.95735 18.9517 6.69593 15.5055 13.8734 10.6045C21.6962 5.2637 28.3541 3.11045 28.6344 3.02103C28.8737 2.94611 29.1299 2.94611 29.3691 3.02103C29.6494 3.11045 36.3074 5.2637 44.1301 10.6045C51.3076 15.5031 55.0438 18.9517 55.1984 19.0967C55.4473 19.3239 55.5851 19.6453 55.5851 19.9812C55.5851 20.3171 55.4449 20.6385 55.1984 20.8681C55.0438 21.0131 51.3076 24.4593 44.1301 29.3579C36.3074 34.6987 29.6494 36.8519 29.3691 36.9414C29.2507 36.98 29.125 36.9969 29.0018 36.9969L28.9993 36.9994ZM5.45618 19.9836C7.00527 21.3055 10.3137 24.0049 15.234 27.3641C21.7348 31.8011 27.5155 33.9906 28.9993 34.515C30.4832 33.9906 36.2663 31.8011 42.7623 27.3641C47.685 24.0049 50.9934 21.3079 52.5425 19.9836C50.9934 18.6617 47.685 15.9599 42.7623 12.6031C36.2663 8.16611 30.4832 5.97661 28.9993 5.4522C27.5155 5.97661 21.7348 8.16611 15.234 12.6031C10.3137 15.9623 7.00527 18.6617 5.45618 19.9836Z" fill="#101014"/>
</svg>
