<svg width="157" height="157" viewBox="0 0 157 157" fill="none" xmlns="http://www.w3.org/2000/svg">
<circle cx="78.5" cy="78.5" r="78" fill="white" stroke="url(#paint0_linear_4624_74)"/>
<path d="M111.88 76.1876C112.093 75.0276 112.187 73.8676 112.187 72.7077C112.187 62.8045 104.8 54.7573 95.6933 54.7573C93.68 54.7573 91.72 55.1487 89.84 55.9172C85.5867 50.3059 79.16 47 72.4667 47C60.1867 47 50.1733 57.7442 49.9467 71.0402C43.36 74.1576 39 81.3349 39 89.1936C39 100.112 47.1733 109 57.2133 109H102.44C111.573 109 119 100.909 119 90.9771C119 85.0033 116.36 79.5515 111.88 76.1876ZM102.44 106.1H57.2133C48.64 106.1 41.6667 98.5168 41.6667 89.1936C41.6667 82.1904 45.72 75.8251 51.76 73.3601C52.3333 73.1282 52.68 72.5047 52.6133 71.8377C52.6 71.7362 52.6133 71.6202 52.6133 71.5042C52.6133 59.5856 61.52 49.8999 72.4667 49.8999C78.68 49.8999 84.6133 53.1333 88.3467 58.5416C88.72 59.0926 89.4 59.2811 89.96 58.9911C91.7867 58.1066 93.72 57.6572 95.6933 57.6572C103.32 57.6572 109.52 64.3994 109.52 72.7077C109.52 73.9691 109.373 75.2451 109.093 76.492C108.947 77.1155 109.187 77.7535 109.693 78.087C113.853 80.8564 116.333 85.6703 116.333 90.9771C116.333 99.3143 110.107 106.1 102.44 106.1Z" fill="url(#paint1_linear_4624_74)"/>
<path d="M88.8796 78.1301C89.1276 65.1608 76.6522 64.0154 76.5225 64.0046C75.7308 63.9437 75.0714 64.4941 75.0052 65.2365C74.939 65.9789 75.5124 66.6333 76.2859 66.6996C76.7226 66.7375 86.9621 67.7476 85.9999 79.2916C85.9675 79.673 86.1084 80.0489 86.3817 80.3274C86.655 80.606 87.0227 80.794 87.4383 80.7507C87.4848 80.748 91.5099 80.6966 93.7106 83.0252C94.9208 84.3071 95.3871 86.1434 95.0955 88.4868C95.0039 89.2292 95.5547 89.9013 96.3282 89.9905C96.386 89.9959 96.4423 90 96.4973 90C97.2003 90 97.8089 89.4943 97.8949 88.8087C98.2879 85.6444 97.5779 83.0833 95.783 81.1942C93.6993 78.9996 90.6815 78.3315 88.881 78.1314L88.8796 78.1301Z" fill="url(#paint2_linear_4624_74)"/>
<defs>
<linearGradient id="paint0_linear_4624_74" x1="25.9126" y1="26.6748" x2="141.757" y2="116.607" gradientUnits="userSpaceOnUse">
<stop stop-color="#EB5C26"/>
<stop offset="0.495" stop-color="#D54BA7"/>
<stop offset="1" stop-color="#264EAB"/>
</linearGradient>
<linearGradient id="paint1_linear_4624_74" x1="59" y1="51" x2="115.5" y2="109" gradientUnits="userSpaceOnUse">
<stop stop-color="#F89E0D"/>
<stop offset="0.535" stop-color="#CB4CE1"/>
<stop offset="1" stop-color="#264EAB"/>
</linearGradient>
<linearGradient id="paint2_linear_4624_74" x1="86.5" y1="64" x2="86.5" y2="90" gradientUnits="userSpaceOnUse">
<stop stop-color="#F89E0D"/>
<stop offset="0.535" stop-color="#CB4CE1"/>
<stop offset="1" stop-color="#264EAB"/>
</linearGradient>
</defs>
</svg>
