<svg width="58" height="58" viewBox="0 0 58 58" fill="none" xmlns="http://www.w3.org/2000/svg">
<g clip-path="url(#clip0_4277_5564)">
<path d="M56.4988 1.15224C55.5466 0.289491 54.2899 -0.114093 53.0429 0.0309074C37.0519 1.95699 31.1649 14.6832 29.0116 22.9602C29.0068 22.9602 29.0019 22.9578 28.9971 22.9578C28.9923 22.9578 28.9874 22.9602 28.9826 22.9602C26.8342 14.6807 20.9472 1.95699 4.95611 0.0309074C3.71636 -0.106843 2.45486 0.289491 1.50027 1.15224C0.514274 2.04882 -0.0343088 3.32482 -0.000475486 4.65641C0.214608 13.0688 2.88744 19.6832 7.94794 24.3112C14.9611 30.725 24.3909 31.3968 27.7912 31.4162V56.7887C27.7912 57.4557 28.3325 57.9971 28.9995 57.9971C29.6665 57.9971 30.2079 57.4557 30.2079 56.7887V31.4162C33.6081 31.3968 43.0404 30.725 50.0511 24.3112C55.1116 19.6808 57.7844 13.0688 57.9995 4.65641C58.0334 3.32482 57.4848 2.04882 56.4988 1.15224ZM9.56469 22.5132C5.01652 18.3468 2.61194 12.3172 2.41619 4.59599C2.39927 3.96766 2.66027 3.36349 3.12669 2.94057C3.56169 2.54182 4.09819 2.35816 4.66852 2.43066C23.9294 4.75066 27.1725 23.8423 27.6945 28.9947C24.5142 28.9415 15.8142 28.2431 9.56469 22.5156V22.5132ZM48.4344 22.5132C42.1824 28.2407 33.4849 28.9391 30.3045 28.9922C30.8289 23.8423 34.0721 4.75066 53.3305 2.42824C53.4079 2.41857 53.4828 2.41374 53.5601 2.41374C54.0362 2.41374 54.4978 2.59499 54.8724 2.93816C55.3388 3.36349 55.5998 3.96524 55.5829 4.59599C55.3871 12.3172 52.9825 18.3444 48.4344 22.5132Z" fill="#101014"/>
</g>
<defs>
<clipPath id="clip0_4277_5564">
<rect width="58" height="58" fill="white"/>
</clipPath>
</defs>
</svg>
