<svg width="58" height="58" viewBox="0 0 58 58" fill="none" xmlns="http://www.w3.org/2000/svg">
<g clip-path="url(#clip0_4277_5547)">
<path d="M29 31.416C32.9972 31.416 36.25 28.1632 36.25 24.166C36.25 20.1688 32.9972 16.916 29 16.916C25.0028 16.916 21.75 20.1688 21.75 24.166C21.75 28.1632 25.0028 31.416 29 31.416ZM29 19.3327C31.6656 19.3327 33.8333 21.5004 33.8333 24.166C33.8333 26.8316 31.6656 28.9993 29 28.9993C26.3344 28.9993 24.1667 26.8316 24.1667 24.166C24.1667 21.5004 26.3344 19.3327 29 19.3327Z" fill="#101014"/>
<path d="M28.9993 36.25C24.2457 36.25 20.147 39.8122 19.4679 44.5368C19.3713 45.1965 19.8304 45.8079 20.4902 45.9046C21.1523 45.9988 21.7638 45.5421 21.858 44.8799C22.3703 41.3371 25.4395 38.6667 28.9993 38.6667C32.559 38.6667 35.6282 41.3371 36.1405 44.8799C36.2275 45.4817 36.7447 45.9167 37.3343 45.9167C37.3899 45.9167 37.4503 45.9118 37.5083 45.9046C38.1681 45.8079 38.6273 45.1965 38.5306 44.5368C37.8491 39.8122 33.7504 36.25 28.9993 36.25Z" fill="#101014"/>
<path d="M37.9804 34.5335C38.9519 34.0695 39.9959 33.8327 41.0834 33.8327C44.6432 33.8327 47.7123 36.5031 48.2247 40.0459C48.3117 40.6477 48.8288 41.0827 49.4185 41.0827C49.4741 41.0827 49.5345 41.0779 49.5925 41.0706C50.2522 40.9739 50.7114 40.3625 50.6147 39.7028C49.9332 34.9782 45.8346 31.416 41.0834 31.416C39.6334 31.416 38.239 31.7326 36.9364 32.3537C36.3347 32.6413 36.0809 33.3638 36.3685 33.9656C36.6561 34.5673 37.3762 34.8187 37.9804 34.5335Z" fill="#101014"/>
<path d="M20.9431 32.3537C19.6406 31.7326 18.2461 31.416 16.7961 31.416C12.0426 31.416 7.94389 34.9782 7.26481 39.7028C7.16814 40.3625 7.62731 40.9739 8.28706 41.0706C8.34506 41.0779 8.40306 41.0827 8.46106 41.0827C9.05314 41.0827 9.56789 40.6477 9.65489 40.0459C10.1672 36.5031 13.2364 33.8327 16.7961 33.8327C17.8836 33.8327 18.9276 34.0695 19.8991 34.5335C20.5033 34.8187 21.2235 34.5673 21.5111 33.9656C21.7986 33.3638 21.5449 32.6413 20.9431 32.3537Z" fill="#101014"/>
<path d="M38.1832 15.4649C39.0242 14.8342 40.0271 14.5007 41.0832 14.5007C43.7488 14.5007 45.9166 16.6684 45.9166 19.334C45.9166 21.625 44.2901 23.6163 42.0499 24.0707C41.395 24.2036 40.9745 24.8416 41.105 25.4965C41.221 26.0692 41.7261 26.4632 42.2891 26.4632C42.3689 26.4632 42.4486 26.4559 42.5308 26.439C45.8924 25.7575 48.3308 22.7681 48.3308 19.334C48.3308 15.3368 45.078 12.084 41.0808 12.084C39.4979 12.084 37.9947 12.5867 36.7308 13.5364C36.1967 13.9352 36.0904 14.694 36.4891 15.2257C36.8927 15.7622 37.6516 15.8757 38.1808 15.4673L38.1832 15.4649Z" fill="#101014"/>
<path d="M9.66648 19.3325C9.66648 22.769 12.1073 25.756 15.4665 26.4375C15.5486 26.4544 15.6284 26.4617 15.7081 26.4617C16.2712 26.4617 16.7739 26.0677 16.8923 25.495C17.0252 24.8401 16.6023 24.2021 15.9474 24.0692C13.7071 23.6148 12.0807 21.6235 12.0807 19.3325C12.0807 16.6669 14.2485 14.4992 16.9141 14.4992C17.9701 14.4992 18.9731 14.8351 19.8141 15.4634C20.3481 15.8694 21.107 15.7582 21.5057 15.2217C21.9069 14.6877 21.7981 13.9312 21.2641 13.5325C20.0001 12.5827 18.4946 12.0801 16.9141 12.0801C12.9169 12.0801 9.66406 15.3329 9.66406 19.3301L9.66648 19.3325Z" fill="#101014"/>
<path d="M1.20833 16.9167C1.87533 16.9167 2.41667 16.3753 2.41667 15.7083V10.875C2.41667 6.21083 6.21083 2.41667 10.875 2.41667H15.7083C16.3753 2.41667 16.9167 1.87533 16.9167 1.20833C16.9167 0.541333 16.3753 0 15.7083 0H10.875C4.87925 0 0 4.87925 0 10.875V15.7083C0 16.3753 0.541333 16.9167 1.20833 16.9167Z" fill="#101014"/>
<path d="M15.7083 55.584H10.875C6.21083 55.584 2.41667 51.7898 2.41667 47.1257V42.2923C2.41667 41.6253 1.87533 41.084 1.20833 41.084C0.541333 41.084 0 41.6253 0 42.2923V47.1257C0 53.1214 4.87925 58.0007 10.875 58.0007H15.7083C16.3753 58.0007 16.9167 57.4593 16.9167 56.7923C16.9167 56.1253 16.3753 55.584 15.7083 55.584Z" fill="#101014"/>
<path d="M56.7923 41.084C56.1253 41.084 55.584 41.6253 55.584 42.2923V47.1257C55.584 51.7898 51.7898 55.584 47.1257 55.584H42.2923C41.6253 55.584 41.084 56.1253 41.084 56.7923C41.084 57.4593 41.6253 58.0007 42.2923 58.0007H47.1257C53.1214 58.0007 58.0007 53.1214 58.0007 47.1257V42.2923C58.0007 41.6253 57.4593 41.084 56.7923 41.084Z" fill="#101014"/>
<path d="M47.1257 0H42.2923C41.6253 0 41.084 0.541333 41.084 1.20833C41.084 1.87533 41.6253 2.41667 42.2923 2.41667H47.1257C51.7898 2.41667 55.584 6.21083 55.584 10.875V15.7083C55.584 16.3753 56.1253 16.9167 56.7923 16.9167C57.4593 16.9167 58.0007 16.3753 58.0007 15.7083V10.875C58.0007 4.87925 53.1214 0 47.1257 0Z" fill="#101014"/>
</g>
<defs>
<clipPath id="clip0_4277_5547">
<rect width="58" height="58" fill="white"/>
</clipPath>
</defs>
</svg>
