<svg width="157" height="157" viewBox="0 0 157 157" fill="none" xmlns="http://www.w3.org/2000/svg">
<circle cx="78.5" cy="78.5" r="78" fill="white" stroke="#101014"/>
<g clip-path="url(#clip0_4624_73)">
<path d="M100.262 56.7981C98.619 56.365 97.3838 55.1715 96.8705 53.5224C94.3519 45.4342 86.9696 39.9961 78.4963 39.9961C70.0231 39.9961 62.644 45.4342 60.1254 53.5256C59.6121 55.1747 58.3769 56.3682 56.7342 56.8013C45.8227 59.6664 38.7162 70.3052 40.2017 81.5504C41.4882 91.2909 49.1529 99.1514 58.8357 100.672C60.0452 100.861 61.2644 100.958 62.4579 100.958H76.8954V115.395C76.8954 116.281 77.6141 116.999 78.4996 116.999C79.3851 116.999 80.1037 116.281 80.1037 115.395V100.958H94.5412C95.7347 100.958 96.9539 100.861 98.1634 100.672C107.846 99.1514 115.508 91.2909 116.797 81.5504C118.283 70.3052 111.176 59.6664 100.262 56.7981ZM113.618 81.1301C112.534 89.3403 105.825 96.2221 97.6694 97.5023C96.6202 97.6659 95.5711 97.7493 94.5412 97.7493H80.1037V88.7884L94.0728 74.8194C94.6984 74.1937 94.6984 73.1767 94.0728 72.5511C93.4472 71.9254 92.4301 71.9254 91.8045 72.5511L80.1069 84.2486V67.2669C80.1069 66.3814 79.3883 65.6628 78.5028 65.6628C77.6173 65.6628 76.8986 66.3814 76.8986 67.2669V84.2486L65.201 72.5511C64.5754 71.9254 63.5583 71.9254 62.9327 72.5511C62.3071 73.1767 62.3071 74.1937 62.9327 74.8194L76.9018 88.7884V97.7493H62.4579C61.4312 97.7493 60.3789 97.6659 59.333 97.5023C51.1774 96.2254 44.4688 89.3403 43.3811 81.1301C42.1074 71.4827 48.1969 62.355 57.5524 59.9006C60.2474 59.1916 62.3584 57.1639 63.1926 54.4785C65.2876 47.7378 71.4412 43.2076 78.4996 43.2076C85.5579 43.2076 91.7115 47.7378 93.8065 54.4785C94.6407 57.1671 96.7486 59.1948 99.4468 59.9006C108.799 62.3582 114.888 71.4827 113.618 81.1301Z" fill="#101014"/>
</g>
<defs>
<clipPath id="clip0_4624_73">
<rect width="77" height="77" fill="white" transform="translate(40 40)"/>
</clipPath>
</defs>
</svg>
